<?xml version="1.0" encoding="UTF-8"?>
<svg width="3300px" height="2200px" viewBox="0 0 3300 2200" version="1.1" xmlns="http://www.w3.org/2000/svg" xmlns:xlink="http://www.w3.org/1999/xlink">
    <title>location.slash</title>
    <g id="Page-1" stroke="none" stroke-width="1" fill="none" fill-rule="evenodd">
        <g id="location.slash">
            <g id="Notes">
                <rect id="artboard" fill="#FFFFFF" fill-rule="nonzero" x="0" y="0" width="3300" height="2200"></rect>
                <line x1="263" y1="292" x2="3036" y2="292" id="Path" stroke="#000000" stroke-width="0.5"></line>
                <text id="Weight/Scale-Variations" fill="#000000" fill-rule="nonzero" font-family="SFPro-Bold, SF Pro" font-size="13" font-weight="bold">
                    <tspan x="263" y="322">Weight/Scale Variations</tspan>
                </text>
                <text id="Ultralight" fill="#000000" fill-rule="nonzero" font-family="SFPro-Regular, SF Pro" font-size="13" font-weight="normal">
                    <tspan x="531.711" y="322">Ultralight</tspan>
                </text>
                <text id="Thin" fill="#000000" fill-rule="nonzero" font-family="SFPro-Regular, SF Pro" font-size="13" font-weight="normal">
                    <tspan x="842.922" y="322">Thin</tspan>
                </text>
                <text id="Light" fill="#000000" fill-rule="nonzero" font-family="SFPro-Regular, SF Pro" font-size="13" font-weight="normal">
                    <tspan x="1137.63" y="322">Light</tspan>
                </text>
                <text id="Regular" fill="#000000" fill-rule="nonzero" font-family="SFPro-Regular, SF Pro" font-size="13" font-weight="normal">
                    <tspan x="1426.34" y="322">Regular</tspan>
                </text>
                <text id="Medium" fill="#000000" fill-rule="nonzero" font-family="SFPro-Regular, SF Pro" font-size="13" font-weight="normal">
                    <tspan x="1722.06" y="322">Medium</tspan>
                </text>
                <text id="Semibold" fill="#000000" fill-rule="nonzero" font-family="SFPro-Regular, SF Pro" font-size="13" font-weight="normal">
                    <tspan x="2014.77" y="322">Semibold</tspan>
                </text>
                <text id="Bold" fill="#000000" fill-rule="nonzero" font-family="SFPro-Regular, SF Pro" font-size="13" font-weight="normal">
                    <tspan x="2325.98" y="322">Bold</tspan>
                </text>
                <text id="Heavy" fill="#000000" fill-rule="nonzero" font-family="SFPro-Regular, SF Pro" font-size="13" font-weight="normal">
                    <tspan x="2617.69" y="322">Heavy</tspan>
                </text>
                <text id="Black" fill="#000000" fill-rule="nonzero" font-family="SFPro-Regular, SF Pro" font-size="13" font-weight="normal">
                    <tspan x="2916.9" y="322">Black</tspan>
                </text>
                <line x1="263" y1="1903" x2="3036" y2="1903" id="Path" stroke="#000000" stroke-width="0.5"></line>
                <g id="Group" transform="translate(264.367190, 1918.068400)" fill="#000000" fill-rule="nonzero">
                    <path d="M7.88086,15.761678 C8.96156,15.761678 9.97717667,15.5566 10.92771,15.146444 C11.8782433,14.7362873 12.7164767,14.166626 13.44241,13.43746 C14.1682767,12.7082933 14.7379433,11.86845 15.15141,10.91793 C15.56481,9.96741 15.77151,8.95504 15.77151,7.88082 C15.77151,6.8066 15.56481,5.79422667 15.15141,4.8437 C14.7379433,3.89316667 14.1666433,3.05333333 13.43751,2.3242 C12.70831,1.595 11.8684767,1.02533333 10.91801,0.6152 C9.96747667,0.205066667 8.95183667,0 7.87109,0 C6.79687,0 5.7845,0.205066667 4.83398,0.6152 C3.88346,1.02533333 3.04687333,1.595 2.32422,2.3242 C1.60156,3.05333333 1.03352333,3.89316667 0.62011,4.8437 C0.206703333,5.79422667 -8.8817842e-16,6.8066 -8.8817842e-16,7.88082 C-8.8817842e-16,8.95504 0.206703333,9.96741 0.62011,10.91793 C1.03352333,11.86845 1.60318667,12.7082933 2.3291,13.43746 C3.05501333,14.166626 3.89323,14.7362873 4.84375,15.146444 C5.79427,15.5566 6.80664,15.761678 7.88086,15.761678 Z M7.88086,14.277303 C6.99544,14.277303 6.16699,14.1129153 5.39551,13.78414 C4.62402333,13.4553667 3.94694,12.99801 3.36426,12.41207 C2.78157333,11.82613 2.32584333,11.14579 1.99707,10.37105 C1.66829,9.59631 1.5039,8.76623333 1.5039,7.88082 C1.5039,6.9954 1.66666333,6.16532 1.99219,5.39058 C2.31771,4.61586 2.77181,3.93553333 3.35449,3.3496 C3.93717,2.76366667 4.61425333,2.3063 5.38574,1.9775 C6.15722667,1.6487 6.98567667,1.4843 7.87109,1.4843 C8.76303667,1.4843 9.59474333,1.6487 10.36621,1.9775 C11.1376767,2.3063 11.8163767,2.76366667 12.40231,3.3496 C12.9882433,3.93553333 13.4472433,4.61586 13.77931,5.39058 C14.11131,6.16532 14.27731,6.9954 14.27731,7.88082 C14.27731,8.76623333 14.1129433,9.59631 13.78421,10.37105 C13.45541,11.14579 12.9996767,11.82613 12.41701,12.41207 C11.8343433,12.99801 11.15561,13.4553667 10.38081,13.78414 C9.60607667,14.1129153 8.77276,14.277303 7.88086,14.277303 Z M4.47265,7.89058 C4.47265,8.10542667 4.54101,8.27958333 4.67773,8.41305 C4.81445,8.54651 4.99674333,8.61324 5.22461,8.61324 L7.13867,8.61324 L7.13867,10.53707 C7.13867,10.7584233 7.2054,10.93746 7.33886,11.07418 C7.47232667,11.2109 7.64648333,11.27926 7.86133,11.27926 C8.08268333,11.27926 8.26171667,11.2109 8.39843,11.07418 C8.53515,10.93746 8.60351,10.7584233 8.60351,10.53707 L8.60351,8.61324 L10.52731,8.61324 C10.74871,8.61324 10.9277433,8.54651 11.06441,8.41305 C11.2011433,8.27958333 11.26951,8.10542667 11.26951,7.89058 C11.26951,7.66922667 11.2011433,7.49019333 11.06441,7.35348 C10.9277433,7.21676 10.74871,7.1484 10.52731,7.1484 L8.60351,7.1484 L8.60351,5.23433 C8.60351,5.00644333 8.53515,4.82416667 8.39843,4.6875 C8.26171667,4.55076667 8.08268333,4.4824 7.86133,4.4824 C7.64648333,4.4824 7.47232667,4.55076667 7.33886,4.6875 C7.2054,4.82416667 7.13867,5.00644333 7.13867,5.23433 L7.13867,7.1484 L5.22461,7.1484 C4.99674333,7.1484 4.81445,7.21676 4.67773,7.35348 C4.54101,7.49019333 4.47265,7.66922667 4.47265,7.89058 Z" id="Shape"></path>
                </g>
                <g id="Group" transform="translate(283.615050, 1915.988300)" fill="#000000" fill-rule="nonzero">
                    <path d="M9.96095,19.92186 C11.3216167,19.92186 12.60255,19.6614433 13.80375,19.14061 C15.0048833,18.6197767 16.06445,17.9003744 16.98245,16.9824031 C17.9003833,16.0644344 18.6197833,15.0048633 19.14065,13.80369 C19.66145,12.6025167 19.92185,11.3215933 19.92185,9.96092 C19.92185,8.60024 19.66145,7.3193 19.14065,6.1181 C18.6197833,4.91696667 17.9003833,3.8574 16.98245,2.9394 C16.06445,2.02146667 15.00325,1.30206667 13.79885,0.7812 C12.5943833,0.2604 11.3118167,0 9.95115,0 C8.59048333,0 7.30956667,0.2604 6.1084,0.7812 C4.90722667,1.30206667 3.84928333,2.02146667 2.93457,2.9394 C2.01985667,3.8574 1.30208333,4.91696667 0.78125,6.1181 C0.260416667,7.3193 8.8817842e-16,8.60024 8.8817842e-16,9.96092 C8.8817842e-16,11.3215933 0.260416667,12.6025167 0.78125,13.80369 C1.30208333,15.0048633 2.02148333,16.0644344 2.93945,16.9824031 C3.85741667,17.9003744 4.91698667,18.6197767 6.11816,19.14061 C7.31933333,19.6614433 8.60026333,19.92186 9.96095,19.92186 Z M9.96095,18.2617 C8.80859667,18.2617 7.73111667,18.0468563 6.72851,17.617169 C5.72591,17.1874813 4.84537667,16.593405 4.08691,15.83494 C3.32845,15.07648 2.73600333,14.1959467 2.30957,13.19334 C1.88313667,12.1907333 1.66992,11.11326 1.66992,9.96092 C1.66992,8.80857333 1.88313667,7.7311 2.30957,6.7285 C2.73600333,5.7259 3.32682333,4.84373333 4.08203,4.082 C4.83723667,3.32026667 5.71614333,2.7262 6.71875,2.2998 C7.72135,1.87333333 8.79881667,1.6601 9.95115,1.6601 C11.1034833,1.6601 12.18095,1.87333333 13.18355,2.2998 C14.18615,2.7262 15.0683167,3.32026667 15.83005,4.082 C16.5917833,4.84373333 17.1874833,5.7259 17.61715,6.7285 C18.0468833,7.7311 18.26175,8.80857333 18.26175,9.96092 C18.26175,11.11326 18.0485167,12.1907333 17.62205,13.19334 C17.19565,14.1959467 16.6032167,15.07648 15.84475,15.83494 C15.0862833,16.593405 14.2041167,17.1874813 13.19825,17.617169 C12.1923833,18.0468563 11.1132833,18.2617 9.96095,18.2617 Z M5.64453,9.97068 C5.64453,10.20506 5.72265333,10.39712 5.8789,10.54686 C6.03515333,10.6966 6.23697667,10.77147 6.48437,10.77147 L9.13085,10.77147 L9.13085,13.43748 C9.13085,13.6783667 9.20571667,13.8753067 9.35545,14.0283 C9.50518333,14.1812933 9.69725,14.25779 9.93165,14.25779 C10.17905,14.25779 10.3808833,14.1812933 10.53715,14.0283 C10.69335,13.8753067 10.77145,13.6783667 10.77145,13.43748 L10.77145,10.77147 L13.42775,10.77147 C13.6686167,10.77147 13.8671833,10.6966 14.02345,10.54686 C14.1797167,10.39712 14.25785,10.20506 14.25785,9.97068 C14.25785,9.72328667 14.1797167,9.52309333 14.02345,9.3701 C13.8671833,9.21710667 13.6686167,9.14061 13.42775,9.14061 L10.77145,9.14061 L10.77145,6.4941 C10.77145,6.24023333 10.69335,6.0368 10.53715,5.8838 C10.3808833,5.7308 10.17905,5.6543 9.93165,5.6543 C9.69725,5.6543 9.50518333,5.7308 9.35545,5.8838 C9.20571667,6.0368 9.13085,6.24023333 9.13085,6.4941 L9.13085,9.14061 L6.48437,9.14061 C6.23046333,9.14061 6.02701333,9.21710667 5.87402,9.3701 C5.72102667,9.52309333 5.64453,9.72328667 5.64453,9.97068 Z" id="Shape"></path>
                </g>
                <g id="Group" transform="translate(307.901860, 1913.224600)" fill="#000000" fill-rule="nonzero">
                    <path d="M12.71484,25.43946 C14.10804,25.43946 15.4378067,25.22299 16.70414,24.79005 C17.9704067,24.3571033 19.13414,23.7500067 20.19534,22.96876 C21.25654,22.1875067 22.1793733,21.2662827 22.96384,20.205088 C23.7483733,19.1438893 24.3571067,17.9785233 24.79004,16.70899 C25.2229733,15.4394633 25.43944,14.11134 25.43944,12.72462 C25.43944,11.3313933 25.2229733,10.0016533 24.79004,8.7354 C24.3571067,7.46906667 23.7483733,6.30533333 22.96384,5.2442 C22.1793733,4.183 21.25654,3.26013333 20.19534,2.4756 C19.13414,1.69106667 17.9687733,1.08233333 16.69924,0.6494 C15.4297067,0.216466667 14.0983067,0 12.70504,0 C11.31184,0 9.98210667,0.216466667 8.71584,0.6494 C7.44955333,1.08233333 6.28743667,1.69106667 5.22949,2.4756 C4.17155,3.26013333 3.25032667,4.183 2.46582,5.2442 C1.68131333,6.30533333 1.07421667,7.46906667 0.64453,8.7354 C0.214843333,10.0016533 0,11.3313933 0,12.72462 C0,14.11134 0.21647,15.4394633 0.64941,16.70899 C1.08235667,17.9785233 1.68945333,19.1438893 2.4707,20.205088 C3.25195333,21.2662827 4.17317667,22.1875067 5.23437,22.96876 C6.29557,23.7500067 7.45929333,24.3571033 8.72554,24.79005 C9.99187333,25.22299 11.32164,25.43946 12.71484,25.43946 Z M12.71484,23.62306 C11.51044,23.62306 10.3629733,23.43914 9.27244,23.0713 C8.18196,22.70346 7.18424667,22.18751 6.2793,21.52345 C5.37434667,20.8593853 4.58821333,20.0732513 3.9209,19.165048 C3.25358,18.2568427 2.73763,17.2574933 2.37305,16.167 C2.00846333,15.0765067 1.82617,13.9290467 1.82617,12.72462 C1.82617,11.51368 2.00846333,10.3629733 2.37305,9.2725 C2.73763,8.18196667 3.25195333,7.1826 3.91602,6.2744 C4.58008,5.3662 5.36458333,4.58006667 6.26953,3.916 C7.17447667,3.25193333 8.17221333,2.73763333 9.26274,2.3731 C10.3532067,2.0085 11.50064,1.8262 12.70504,1.8262 C13.9159733,1.8262 15.0667067,2.0085 16.15724,2.3731 C17.2477067,2.73763333 18.24704,3.25193333 19.15524,3.916 C20.06344,4.58006667 20.8495733,5.3662 21.51364,6.2744 C22.1777067,7.1826 22.6936733,8.18196667 23.06154,9.2725 C23.42934,10.3629733 23.6134125,11.51368 23.6134125,12.72462 C23.6197733,13.9290467 23.44074,15.0765067 23.07614,16.167 C22.7116067,17.2574933 22.1956733,18.2568427 21.52834,19.165048 C20.8610067,20.0732513 20.07324,20.8593853 19.16504,21.52345 C18.25684,22.18751 17.2575067,22.70346 16.16704,23.0713 C15.0765067,23.43914 13.9257733,23.62306 12.71484,23.62306 Z M7.19726,12.73438 C7.19726,12.9882867 7.28352333,13.19825 7.45605,13.36427 C7.62857667,13.5302833 7.84830667,13.61329 8.11524,13.61329 L11.80664,13.61329 L11.80664,17.31446 C11.80664,17.5813867 11.88964,17.7994867 12.05564,17.96876 C12.22164,18.1380333 12.4316067,18.22267 12.68554,18.22267 C12.9590067,18.22267 13.1803733,18.1380333 13.34964,17.96876 C13.5189067,17.7994867 13.60354,17.5813867 13.60354,17.31446 L13.60354,13.61329 L17.30464,13.61329 C17.5715733,13.61329 17.7896733,13.5302833 17.95894,13.36427 C18.1282733,13.19825 18.21294,12.9882867 18.21294,12.73438 C18.21294,12.4609467 18.1282733,12.2395933 17.95894,12.07032 C17.7896733,11.9010533 17.5715733,11.81642 17.30464,11.81642 L13.60354,11.81642 L13.60354,8.125 C13.60354,7.8516 13.5189067,7.63023333 13.34964,7.4609 C13.1803733,7.29163333 12.9590067,7.207 12.68554,7.207 C12.4316067,7.207 12.22164,7.29326667 12.05564,7.4658 C11.88964,7.63833333 11.80664,7.85806667 11.80664,8.125 L11.80664,11.81642 L8.11524,11.81642 C7.8418,11.81642 7.62044333,11.9010533 7.45117,12.07032 C7.28189667,12.2395933 7.19726,12.4609467 7.19726,12.73438 Z" id="Shape"></path>
                </g>
                <text id="Design-Variations" fill="#000000" fill-rule="nonzero" font-family="SFPro-Bold, SF Pro" font-size="13" font-weight="bold">
                    <tspan x="263" y="1953">Design Variations</tspan>
                </text>
                <text id="Symbols-are-supported-in-up-to-nine-weights-and-three-scales." fill="#000000" fill-rule="nonzero" font-family="SFPro-Regular, SF Pro" font-size="13" font-weight="normal">
                    <tspan x="263" y="1971">Symbols are supported in up to nine weights and three scales.</tspan>
                </text>
                <text id="For-optimal-layout-with-text-and-other-symbols,-vertically-align" fill="#000000" fill-rule="nonzero" font-family="SFPro-Regular, SF Pro" font-size="13" font-weight="normal">
                    <tspan x="263" y="1989">For optimal layout with text and other symbols, vertically align</tspan>
                </text>
                <text id="symbols-with-the-adjacent-text." fill="#000000" fill-rule="nonzero" font-family="SFPro-Regular, SF Pro" font-size="13" font-weight="normal">
                    <tspan x="263" y="2007">symbols with the adjacent text.</tspan>
                </text>
                <line x1="776" y1="1919" x2="776" y2="1933" id="Path" stroke="#00AEEF" stroke-width="0.5"></line>
                <g id="Group" transform="translate(778.490230, 1918.732400)" fill="#000000" fill-rule="nonzero">
                    <path d="M0.82032,14.42385 C1.08073333,14.42385 1.28255667,14.3685115 1.42579,14.2578344 C1.56901667,14.1471575 1.68620333,13.9551 1.77735,13.681662 L3.03711,10.2344 L8.79887,10.2344 L10.05857,13.681662 C10.1497033,13.9551 10.2669033,14.1471575 10.41017,14.2578344 C10.55337,14.3685115 10.7519367,14.42385 11.00587,14.42385 C11.26627,14.42385 11.47297,14.3522354 11.62597,14.2090062 C11.77897,14.0657767 11.85547,13.8704643 11.85547,13.623069 C11.85547,13.473329 11.81967,13.297546 11.74807,13.09572 L7.16797,0.8985 C7.05078333,0.598966667 6.89128,0.374333333 6.68946,0.2246 C6.48763333,0.0748666667 6.23047,0 5.91797,0 C5.31250333,0 4.90234667,0.296233333 4.6875,0.8887 L0.10743,13.10549 C0.03581,13.3073133 -4.4408921e-16,13.4830947 -4.4408921e-16,13.632834 C-4.4408921e-16,13.88023 0.0732433333,14.073915 0.21973,14.2138891 C0.366216667,14.353863 0.566413333,14.42385 0.82032,14.42385 Z M3.51563,8.75002 L5.88868,2.1778 L5.9375,2.1778 L8.31057,8.75002 L3.51563,8.75002 Z" id="Shape"></path>
                </g>
                <line x1="793.197" y1="1919" x2="793.197" y2="1933" id="Path" stroke="#00AEEF" stroke-width="0.5"></line>
                <text id="Margins" fill="#000000" fill-rule="nonzero" font-family="SFPro-Bold, SF Pro" font-size="13" font-weight="bold">
                    <tspan x="776" y="1953">Margins</tspan>
                </text>
                <text id="Leading-and-trailing-margins-on-the-left-and-right-side-of-each-symbol" fill="#000000" fill-rule="nonzero" font-family="SFPro-Regular, SF Pro" font-size="13" font-weight="normal">
                    <tspan x="776" y="1971">Leading and trailing margins on the left and right side of each symbol</tspan>
                </text>
                <text id="can-be-adjusted-by-modifying-the-x-location-of-the-margin-guidelines." fill="#000000" fill-rule="nonzero" font-family="SFPro-Regular, SF Pro" font-size="13" font-weight="normal">
                    <tspan x="776" y="1989">can be adjusted by modifying the x-location of the margin guidelines.</tspan>
                </text>
                <text id="Modifications-are-automatically-applied-proportionally-to-all" fill="#000000" fill-rule="nonzero" font-family="SFPro-Regular, SF Pro" font-size="13" font-weight="normal">
                    <tspan x="776" y="2007">Modifications are automatically applied proportionally to all</tspan>
                </text>
                <text id="scales-and-weights." fill="#000000" fill-rule="nonzero" font-family="SFPro-Regular, SF Pro" font-size="13" font-weight="normal">
                    <tspan x="776" y="2025">scales and weights.</tspan>
                </text>
                <g id="Group" transform="translate(1291.246849, 1914.517550)" fill="#000000" fill-rule="nonzero">
                    <path d="M0.594951479,20.3476805 L2.29417148,22.0566705 C2.72385815,22.4928705 3.17795815,22.6946938 3.65647148,22.6621405 C4.13498481,22.6295872 4.60536148,22.3561505 5.06760148,21.8418305 L15.7609515,10.0547205 L14.7941515,9.07815049 L4.17893148,20.7578405 C4.00315148,20.9596605 3.82574148,21.0735938 3.64670148,21.0996405 C3.46766815,21.1256805 3.26096481,21.0215138 3.02659148,20.7871405 L1.85471148,19.6250305 C1.62033815,19.3906545 1.51780148,19.1839482 1.54710148,19.0049115 C1.57639481,18.8258748 1.69195148,18.6452108 1.89377148,18.4629193 L13.3683515,7.66215049 L12.3918515,6.69535049 L0.800031479,17.5840125 C0.305238146,18.0397418 0.039938146,18.5052368 0.00413147929,18.9804975 C-0.0316751874,19.4557595 0.165264813,19.9114872 0.594951479,20.3476805 Z M7.01096148,2.15435049 C6.80262815,2.35615049 6.68544148,2.58725049 6.65940148,2.84765049 C6.63336148,3.10811716 6.67893481,3.33598382 6.79612148,3.53125049 C6.91330815,3.71358382 7.08420481,3.85031716 7.30881148,3.94145049 C7.53342481,4.03258382 7.80850481,4.03908382 8.13405148,3.96095049 C8.86318481,3.79168382 9.60211815,3.72171716 10.3508515,3.75105049 C11.0995181,3.78031716 11.8319181,4.02931716 12.5480515,4.49805049 L11.9621515,5.95315049 C11.7928848,6.36981716 11.7456848,6.73278382 11.8205515,7.04205049 C11.8954181,7.35125049 12.0663181,7.64258382 12.3332515,7.91605049 L14.6281515,10.2305005 C14.8690181,10.4778938 15.1033848,10.6211205 15.3312515,10.6601805 C15.5591181,10.6992472 15.8130181,10.6927372 16.0929515,10.6406505 L17.1574515,10.4453405 L17.8215515,11.1191705 L17.7824515,11.6758105 C17.7629181,11.9232038 17.7938515,12.1510672 17.8752515,12.3594005 C17.9565848,12.5677338 18.1177181,12.7923438 18.3586515,13.0332305 L19.1203515,13.7754205 C19.3612181,14.0163072 19.6232515,14.1416338 19.9064515,14.1514005 C20.1896515,14.1611605 20.4484515,14.0488538 20.6828515,13.8144805 L23.5929515,10.8945605 C23.8273515,10.6601872 23.9412848,10.4046538 23.9347515,10.1279605 C23.9282848,9.85126716 23.8045848,9.59247716 23.5636515,9.35159049 L22.7922515,8.58987049 C22.5578515,8.34899049 22.3381181,8.18461716 22.1330515,8.09675049 C21.9279848,8.00881716 21.7049848,7.97461716 21.4640515,7.99415049 L20.8879515,8.04295049 L20.2433515,7.40825049 L20.4875515,6.28515049 C20.5526181,6.00521716 20.5395848,5.74318382 20.4484515,5.49905049 C20.3573181,5.25491716 20.1652515,4.98635049 19.8722515,4.69335049 L17.6750515,2.50585049 C16.8417181,1.67905049 15.9546515,1.05895049 15.0138515,0.64555049 C14.0731181,0.23215049 13.1258515,0.0173171567 12.1720515,0.00105049002 C11.2183181,-0.0152828433 10.3003515,0.15885049 9.41815148,0.52345049 C8.53601815,0.88805049 7.73362148,1.43168382 7.01096148,2.15435049 Z M8.50515148,2.52545049 C9.11061815,2.08271716 9.76001815,1.76695049 10.4533515,1.57815049 C11.1466848,1.38935049 11.8481848,1.32911716 12.5578515,1.39745049 C13.2674515,1.46585049 13.9559181,1.65628382 14.6232515,1.96875049 C15.2905848,2.28128382 15.9009515,2.71748382 16.4543515,3.27735049 L18.8859515,5.68945049 C19.0031515,5.80665049 19.0763848,5.92058382 19.1056515,6.03125049 C19.1349848,6.14191716 19.1301181,6.28191716 19.0910515,6.45125049 L18.7687515,7.93555049 L20.2726515,9.41995049 L21.2590515,9.36136049 C21.3827181,9.35484716 21.4771181,9.36298382 21.5422515,9.38577049 C21.6073181,9.40855716 21.6886848,9.46877716 21.7863515,9.56643049 L22.3625515,10.1426105 L19.9211515,12.5840105 L19.3449515,12.0078405 C19.2472848,11.9101872 19.1854181,11.8288072 19.1593515,11.7637005 C19.1333515,11.6985938 19.1236181,11.6009372 19.1301515,11.4707305 L19.1984515,10.4941705 L17.7043515,9.00979049 L16.1808515,9.26370049 C16.0181181,9.29625382 15.8895515,9.30113716 15.7951515,9.27835049 C15.7007515,9.25556382 15.5916848,9.18557716 15.4679515,9.06839049 L13.4660515,7.06645049 C13.3358515,6.94925049 13.2626181,6.83695049 13.2463515,6.72955049 C13.2300848,6.62208382 13.2609848,6.47721716 13.3390515,6.29495049 L14.2179515,4.20515049 C13.4367515,3.47595049 12.5578515,2.97138382 11.5812515,2.69145049 C10.6047181,2.41151716 9.60861815,2.42128382 8.59295148,2.72075049 C8.51488481,2.74028382 8.46445148,2.72561716 8.44165148,2.67675049 C8.41885148,2.62795049 8.44001815,2.57751716 8.50515148,2.52545049 Z" id="Shape"></path>
                </g>
                <text id="Exporting" fill="#000000" fill-rule="nonzero" font-family="SFPro-Bold, SF Pro" font-size="13" font-weight="bold">
                    <tspan x="1289" y="1953">Exporting</tspan>
                </text>
                <text id="Symbols-should-be-outlined-when-exporting-to-ensure-the" fill="#000000" fill-rule="nonzero" font-family="SFPro-Regular, SF Pro" font-size="13" font-weight="normal">
                    <tspan x="1289" y="1971">Symbols should be outlined when exporting to ensure the</tspan>
                </text>
                <text id="design-is-preserved-when-submitting-to-Xcode." fill="#000000" fill-rule="nonzero" font-family="SFPro-Regular, SF Pro" font-size="13" font-weight="normal">
                    <tspan x="1289" y="1989">design is preserved when submitting to Xcode.</tspan>
                </text>
                <text id="template-version" fill="#000000" fill-rule="nonzero" font-family="SFPro-Regular, SF Pro" font-size="13" font-weight="normal">
                    <tspan x="2948" y="1933">Template v.3.0</tspan>
                </text>
                <text id="Requires-Xcode-13-or-greater" fill="#000000" fill-rule="nonzero" font-family="SFPro-Regular, SF Pro" font-size="13" font-weight="normal">
                    <tspan x="2860" y="1951">Requires Xcode 13 or greater</tspan>
                </text>
                <text id="descriptive-name" fill="#000000" fill-rule="nonzero" font-family="SFPro-Regular, SF Pro" font-size="13" font-weight="normal">
                    <tspan x="2853" y="1969">Generated from location.slash</tspan>
                </text>
                <text id="Typeset-at-100-points" fill="#000000" fill-rule="nonzero" font-family="SFPro-Regular, SF Pro" font-size="13" font-weight="normal">
                    <tspan x="2905" y="1987">Typeset at 100 points</tspan>
                </text>
                <text id="Small" fill="#000000" fill-rule="nonzero" font-family="SFPro-Regular, SF Pro" font-size="13" font-weight="normal">
                    <tspan x="263" y="726">Small</tspan>
                </text>
                <text id="Medium" fill="#000000" fill-rule="nonzero" font-family="SFPro-Regular, SF Pro" font-size="13" font-weight="normal">
                    <tspan x="263" y="1156">Medium</tspan>
                </text>
                <text id="Large" fill="#000000" fill-rule="nonzero" font-family="SFPro-Regular, SF Pro" font-size="13" font-weight="normal">
                    <tspan x="263" y="1586">Large</tspan>
                </text>
            </g>
            <g id="Guides" transform="translate(263.000000, 625.041000)">
                <g id="H-reference" transform="translate(76.976562, 0.500000)" fill="#27AAE1" fill-rule="nonzero">
                    <path d="M-1.22124533e-15,70.459 L2.685548,70.459 L28.369138,3.3203 L29.052738,3.3203 L29.052738,0 L27.148438,0 L-1.22124533e-15,70.459 Z M10.693338,45.9961 L45.996138,45.9961 L45.263638,43.75 L11.474638,43.75 L10.693338,45.9961 Z M54.150438,70.459 L56.787138,70.459 L29.638638,0 L28.466838,0 L28.466838,3.3203 L54.150438,70.459 Z" id="Shape"></path>
                </g>
                <line x1="0" y1="70.959" x2="2773" y2="70.959" id="Baseline-S" stroke="#27AAE1" stroke-width="0.5"></line>
                <line x1="0" y1="0.5" x2="2773" y2="0.5" id="Capline-S" stroke="#27AAE1" stroke-width="0.5"></line>
                <g id="H-reference" transform="translate(76.976562, 430.500000)" fill="#27AAE1" fill-rule="nonzero">
                    <path d="M-1.22124533e-15,70.459 L2.685548,70.459 L28.369138,3.3203 L29.052738,3.3203 L29.052738,0 L27.148438,0 L-1.22124533e-15,70.459 Z M10.693338,45.9961 L45.996138,45.9961 L45.263638,43.75 L11.474638,43.75 L10.693338,45.9961 Z M54.150438,70.459 L56.787138,70.459 L29.638638,0 L28.466838,0 L28.466838,3.3203 L54.150438,70.459 Z" id="Shape"></path>
                </g>
                <line x1="0" y1="500.959" x2="2773" y2="500.959" id="Baseline-M" stroke="#27AAE1" stroke-width="0.5"></line>
                <line x1="0" y1="430.499" x2="2773" y2="430.499" id="Capline-M" stroke="#27AAE1" stroke-width="0.5"></line>
                <g id="H-reference" transform="translate(76.976562, 860.500000)" fill="#27AAE1" fill-rule="nonzero">
                    <path d="M-1.22124533e-15,70.459 L2.685548,70.459 L28.369138,3.3203 L29.052738,3.3203 L29.052738,0 L27.148438,0 L-1.22124533e-15,70.459 Z M10.693338,45.9961 L45.996138,45.9961 L45.263638,43.75 L11.474638,43.75 L10.693338,45.9961 Z M54.150438,70.459 L56.787138,70.459 L29.638638,0 L28.466838,0 L28.466838,3.3203 L54.150438,70.459 Z" id="Shape"></path>
                </g>
                <line x1="0" y1="930.959" x2="2773" y2="930.959" id="Baseline-L" stroke="#27AAE1" stroke-width="0.5"></line>
                <line x1="0" y1="860.499" x2="2773" y2="860.499" id="Capline-L" stroke="#27AAE1" stroke-width="0.5"></line>
                <line x1="1128.84" y1="405.749" x2="1128.84" y2="525.079" id="left-margin-Regular-M" stroke="#00AEEF" stroke-width="0.5"></line>
                <line x1="1244.85" y1="405.749" x2="1244.85" y2="525.079" id="right-margin-Regular-M" stroke="#00AEEF" stroke-width="0.5"></line>
            </g>
            <g id="Symbols" transform="translate(1370.000000, 620.000000)" fill="#000000" fill-rule="nonzero">
                <g id="Regular-L" transform="translate(0.000000, 829.000000)">
                    <path d="M142.674321,0.00139960393 C142.063778,-0.0133676536 141.405641,0.0883480943 140.833166,0.324331901 L122.47275,7.70247397 C120.853914,8.33387612 119.534891,9.96360575 119.189329,11.8315721 L116.085887,29.316758 L88.4905374,29.316758 C87.1070563,29.316758 86,30.5424337 86,32.0801717 L86,45.2316551 C86,46.7686106 87.106994,48 88.4905374,48 L91.3045532,48 L144.695442,48 L147.472976,48 C148.85647,48 150,46.7687494 150,45.2316551 L150,32.0801717 C150,30.5425473 148.856408,29.316758 147.472976,29.316758 L126.257197,29.316758 L128.458309,17.1242117 L144.226038,10.8307279 C146.425419,9.98648976 147.878635,7.20649399 147.509463,4.65310503 C147.140315,2.09995638 145.000807,0.0374085594 142.674321,0.00139960393 Z M52.8183861,46.0106044 C43.6494584,45.8408121 34.5998068,47.7128405 26.6628497,51.4211891 C17.763904,55.5875334 10.6777714,61.8711178 6.37415638,69.4120627 C3.70460764,73.7427493 1.71586184,78.6054912 0.0944964059,84.1634924 C-0.375796028,85.9064948 0.979096009,87.9384034 2.61267405,87.9358517 L63.7118725,87.9358517 L63.8502871,88 L99.9401202,88 L101.780793,87.1833537 L101.953205,87.3733291 C102.814976,86.6548153 103.208516,85.3091228 102.890539,84.1634924 C102.190268,81.5569244 101.241881,79.0990703 100.110102,76.7569375 C96.8981816,66.063519 88.4049822,56.8959117 76.6038729,51.3841808 C69.35846,48.0132591 61.1795518,46.1654942 52.8183861,46.0106044 Z M92,53 L92,54.4395674 C100.268087,61.4821253 106.442366,70.787369 109.366483,81.6881774 L109.366483,81.7299395 C110.355763,85.4977683 109.29959,88.9042648 107.060771,91.0625638 L106.89418,91.1632843 L108.178619,127.859971 L139.787408,127.859971 L139.912951,128 L142.527697,128 C143.901061,128 145,126.732171 145,125.199479 L145,117.969706 L145,53 L92,53 Z M8.26722561,95 C5.39600896,95 3,98.37636 3,102.39808 C3,106.420016 5.39600896,109.753853 8.26722561,109.753853 L68.4342063,109.753853 L95.8719265,110 C98.743043,110.025829 102,106.052142 102,102.159514 C102,98.2671542 99.6039409,94.9836732 96.7327746,95 L80.0945691,95.0920074 L80.0118878,95 L8.26722561,95 Z M17.4255746,113 C10.2985594,113.001294 4.60670129,117.975826 4.10649443,124.054958 L4,125 L5.29245657,125 L10.4598623,125 L11.5417503,125 L11.6845506,124.219199 C12.0632034,121.460428 14.4822826,119.451047 17.4279948,119.451047 C20.3736945,119.451047 22.8623119,121.463456 23.2440504,124.219199 L23.4207344,125 L24.4300121,125 L33.5473983,125 L34.5881409,125 L34.6607499,124.219199 C35.0392787,121.460428 37.4921821,119.451047 40.4380802,119.451047 C43.3842137,119.451047 45.8752376,121.463456 46.2565547,124.219199 L46.4356589,125 L47.4376762,125 L56.5235976,125 L57.6006452,125 L57.7071404,124.219199 C58.0858168,121.460428 60.5405827,119.451047 63.4868897,119.451047 C66.4323788,119.451047 68.9214163,121.463456 69.302944,124.219199 L69.4481645,125 L70.4526019,125 L79.5699881,125 L80.6494547,125 L80.7196448,124.219199 C81.0980745,121.460428 83.5555085,119.451047 86.5018154,119.451047 C89.4473169,119.451047 91.9700163,121.463456 92.3517548,124.219199 L92.4945538,125 L93.5014114,125 L98.7438482,125 L100,125 L99.9249696,124.054958 C99.4218878,117.972747 93.6305779,113 86.5018154,113 C81.4762391,113 77.3251467,115.543252 75.0463894,119.125075 C72.7584744,115.538478 68.5166174,113 63.4868897,113 C58.4469633,113 54.3055776,115.605141 52.0338838,119.203411 C49.7530447,115.599422 45.5195275,113 40.4743853,113 C35.4498486,113 31.2666732,115.543976 28.9874945,119.125075 C26.7004221,115.53875 22.4567559,113.001371 17.4279948,113 L17.4255746,113 Z M5.29252743,129 C3.81385837,129 2.66269953,129.486168 1.57986928,130.417489 C1.03837933,130.883155 0.478457668,131.481479 0.13659766,132.597098 C-0.204901578,133.713353 0.115359669,135.429089 0.858233408,136.348131 L5.83193189,142.527005 C5.96678497,142.694526 6.21161433,143.233086 6.80626165,144.063665 C7.4005487,144.894981 8.82400252,146 10.3026727,146 L92.7270848,146 C94.2057538,146 95.6655681,144.894981 96.2599418,144.063665 C96.8542532,143.232819 97.0575902,142.69445 97.1929658,142.527005 L102.171524,136.348131 C102.913116,135.428936 103.198324,133.712896 102.856713,132.597098 C102.515214,131.481631 101.952726,130.883155 101.411012,130.417489 C100.328306,129.486003 99.2154012,129 97.7372298,129 L5.29252743,129 Z" id="shape"></path>
                </g>
                <g id="Regular-M" transform="translate(22.000000, 399.000000)">
                    <path d="M110.327678,0.00131196351 C109.854931,-0.0125305977 109.345331,0.0828159122 108.90206,0.304022882 L94.685468,7.22016035 C93.4319919,7.81202535 92.4106643,9.33970456 92.1430933,11.0907026 L89.7400772,27.4810009 L68.372815,27.4810009 C67.3015764,27.4810009 66.4443754,28.6299272 66.4443754,30.0713751 L66.4443754,42.3993387 C66.4443754,43.8400531 67.3015282,44.9943354 68.372815,44.9943354 L70.5517261,44.9943354 L111.892645,44.9943354 L114.043309,44.9943354 C115.114557,44.9943354 116,43.8401832 116,42.3993387 L116,30.0713751 C116,28.6300337 115.114509,27.4810009 114.043309,27.4810009 L97.6157899,27.4810009 L99.3201255,16.0519276 L111.529183,10.1525293 C113.232178,9.36115561 114.357413,6.75523765 114.07156,4.36173684 C113.785727,1.96846128 112.129091,0.0350661097 110.327678,0.00131196351 Z M40.9622309,42.82221 C33.8514545,42.6631835 26.8331802,44.416514 20.6778337,47.8897307 C13.7764364,51.7919036 8.2809296,57.6770706 4.94334804,64.7398738 C2.87303351,68.7959686 1.33070194,73.3503832 0.073284776,78.5559734 C-0.291441007,80.1884588 0.759318103,82.0915321 2.0262065,82.0891422 L49.4104538,82.0891422 L49.5177985,82.1492231 L77.5065385,82.1492231 L78.934035,81.3843572 L79.0677453,81.562287 C79.736075,80.8893313 80.0412766,79.6289639 79.7946764,78.5559734 C79.251595,76.1146776 78.516093,73.8126663 77.6383647,71.619039 C75.1474245,61.6036482 68.5606956,53.0173227 59.408584,47.855069 C53.7895506,44.6978842 47.4465638,42.9672788 40.9622309,42.82221 Z M70.5517261,49.8423327 L70.5517261,51.1964442 C77.0009778,57.8209405 81.8170223,66.5738046 84.0978843,76.8275173 L84.0978843,76.8668002 C84.8695398,80.4109625 84.0457065,83.6152419 82.2993887,85.6454196 L82.1694447,85.740161 L83.1713298,120.258453 L107.826733,120.258453 L107.924659,120.390169 L109.964206,120.390169 C111.035454,120.390169 111.892645,119.197601 111.892645,117.755893 L111.892645,110.955295 L111.892645,49.8423327 L70.5517261,49.8423327 Z M6.46877443,89.2316794 C4.24521558,89.2316794 2.38967225,92.3712413 2.38967225,96.1109015 C2.38967225,99.8507628 4.24521558,102.950784 6.46877443,102.950784 L53.0639425,102.950784 L74.3125604,103.179667 C76.5360416,103.203685 79.0583297,99.5086888 79.0583297,95.8890675 C79.0583297,92.2696946 77.2027475,89.2164977 74.9792277,89.2316794 L62.0940875,89.317234 L62.0300566,89.2316794 L6.46877443,89.2316794 Z M13.0318715,106.557897 C7.48639273,106.55908 3.05759926,111.10823 2.66839194,116.667522 L2.58552939,117.531752 L3.59118047,117.531752 L7.61190136,117.531752 L8.45371057,117.531752 L8.56482244,116.817718 C8.85944944,114.294856 10.7417174,112.457301 13.0337546,112.457301 C15.3257823,112.457301 17.2621574,114.297625 17.5591853,116.817718 L17.6966618,117.531752 L18.4819735,117.531752 L25.5761455,117.531752 L26.3859398,117.531752 L26.4424363,116.817718 C26.7369669,114.294856 28.6455532,112.457301 30.9377351,112.457301 C33.2301002,112.457301 35.1683478,114.297625 35.4650479,116.817718 L35.6044076,117.531752 L36.3840699,117.531752 L43.4537594,117.531752 L44.2918024,117.531752 L44.3746655,116.817718 C44.6693108,114.294856 46.5793464,112.457301 48.8718464,112.457301 C51.1637101,112.457301 53.1004121,114.297625 53.3972761,116.817718 L53.5102711,117.531752 L54.2918166,117.531752 L61.3859886,117.531752 L62.2259137,117.531752 L62.2805281,116.817718 C62.5749815,114.294856 64.4870931,112.457301 66.7795931,112.457301 C69.0714665,112.457301 71.0343605,114.297625 71.3313885,116.817718 L71.4424994,117.531752 L72.225928,117.531752 L76.3050299,117.531752 L77.2824326,117.531752 L77.2240519,116.667522 C76.8326076,111.105414 72.3264315,106.557897 66.7795931,106.557897 C62.8692286,106.557897 59.6392938,108.88367 57.8662093,112.159204 C56.0859992,108.879304 52.7854411,106.557897 48.8718464,106.557897 C44.9503163,106.557897 41.7279342,108.940267 39.9603457,112.230841 C38.1856413,108.935037 34.8915724,106.557897 30.9659838,106.557897 C27.0564283,106.557897 23.8015299,108.884333 22.0281175,112.159204 C20.2485631,108.879553 16.9465972,106.559151 13.0337546,106.557897 L13.0318715,106.557897 Z M4.12225471,121.17584 C2.97617331,121.17584 2.08393733,121.628381 1.24466123,122.495285 C0.824965177,122.928743 0.390983149,123.485682 0.126015547,124.524138 C-0.138672432,125.563184 0.109554482,127.160247 0.685338339,128.015722 L4.54033434,133.767222 C4.64485577,133.923156 4.83461721,134.424466 5.29551428,135.197596 C5.75613211,135.971412 6.85941748,137 8.00549974,137 L71.8907112,137 C73.0367925,137 74.16826,135.971412 74.628945,135.197596 C75.0895817,134.424217 75.2471834,133.923085 75.3521098,133.767222 L79.2108722,128.015722 C79.7856629,127.160105 80.0067209,125.562758 79.7419461,124.524138 C79.4772581,123.485824 79.0412871,122.928743 78.6214176,122.495285 C77.7822378,121.628227 76.9196516,121.17584 75.773956,121.17584 L4.12225471,121.17584 Z" id="shape"></path>
                </g>
                <g id="Regular-S" transform="translate(36.000000, 0.000000)">
                    <path d="M79.8976197,0.000806716152 C79.5557158,-0.00770496699 79.1871591,0.0509228599 78.8665731,0.186941304 L68.5847403,4.43962041 C67.6781916,4.80355359 66.9395392,5.74291165 66.7460244,6.81958672 L65.0080967,16.8978536 L49.5547009,16.8978536 C48.7799515,16.8978536 48.16,17.6043194 48.16,18.4906545 L48.16,26.0710234 C48.16,26.9569075 48.7799167,27.6666667 49.5547009,27.6666667 L51.1305498,27.6666667 L81.0294474,27.6666667 L82.5848667,27.6666667 C83.3596231,27.6666667 84,26.9569875 84,26.0710234 L84,18.4906545 C84,17.6043849 83.3595882,16.8978536 82.5848667,16.8978536 L70.7040302,16.8978536 L71.9366529,9.87020535 L80.7665812,6.24271123 C81.9982346,5.75610174 82.8120356,4.15374306 82.6052991,2.68199804 C82.3985765,1.21039152 81.2004517,0.021561878 79.8976197,0.000806716152 Z M29.8654641,25.3672234 C24.6810142,25.269357 19.5640072,26.3483733 15.0761589,28.4858243 C10.0443667,30.8872588 6.03760589,34.509047 3.60418318,38.8555639 C2.09472183,41.3517236 0.970211585,44.1545539 0.0534317542,47.3581241 C-0.212488938,48.3627713 0.553617006,49.5339408 1.4773023,49.5324701 L36.0250432,49.5324701 L36.103308,49.5694444 L56.5098311,49.5694444 L57.5506154,49.0987386 L57.6481032,49.2082383 C58.1353808,48.7940949 58.3579025,48.0184527 58.1781069,47.3581241 C57.7821476,45.8557273 57.2458948,44.4390474 56.6059452,43.0890682 C54.7898067,36.9255006 49.9874385,31.6413935 43.3146559,28.4644931 C39.2178321,26.5215313 34.5931757,25.4565001 29.8654641,25.3672234 Z M50.4,29.9722222 L50.4,30.7909095 C55.1174899,34.7960383 58.6403237,40.0879648 60.3087256,46.287295 L60.3087256,46.3110452 C60.8731751,48.4538234 60.2705586,50.3911106 58.9931644,51.6185432 L58.8981131,51.6758233 L59.6309707,72.5453652 L77.6658718,72.5453652 L77.7375027,72.625 L79.2293876,72.625 C80.0129828,72.625 80.64,71.903981 80.64,71.0323333 L80.64,66.9207344 L80.64,29.9722222 L50.4,29.9722222 Z M5.15985194,54.1805556 C3.56821184,54.1805556 2.24,55.9969122 2.24,58.1604486 C2.24,60.3241014 3.56821184,62.1175821 5.15985194,62.1175821 L38.5130227,62.1175821 L53.7229427,62.25 C55.3145272,62.2638953 57.12,60.1261986 57.12,58.0321092 C57.12,55.9381635 55.7917603,54.1717723 54.2001482,54.1805556 L44.9768682,54.2300522 L44.9310344,54.1805556 L5.15985194,54.1805556 Z M9.75832176,64.5555556 C5.76719325,64.5563013 2.57975272,67.4235665 2.29963688,70.9275103 L2.24,71.4722222 L2.96377568,71.4722222 L5.85752289,71.4722222 L6.46338018,71.4722222 L6.54334834,71.022177 C6.75539391,69.4320523 8.11007825,68.2738674 9.75967706,68.2738674 C11.4092689,68.2738674 12.8028947,69.4337973 13.0166682,71.022177 L13.1156112,71.4722222 L13.6808068,71.4722222 L18.7865431,71.4722222 L19.3693589,71.4722222 L19.4100199,71.022177 C19.6219961,69.4320523 20.995622,68.2738674 22.6453249,68.2738674 C24.2951597,68.2738674 25.6901331,69.4337973 25.9036707,71.022177 L26.003969,71.4722222 L26.5650986,71.4722222 L31.6532146,71.4722222 L32.2563613,71.4722222 L32.3159986,71.022177 C32.5280574,69.4320523 33.9027263,68.2738674 35.5526582,68.2738674 C37.2021321,68.2738674 38.5959931,69.4337973 38.8096487,71.022177 L38.8909721,71.4722222 L39.4534571,71.4722222 L44.5591933,71.4722222 L45.1636946,71.4722222 L45.2030011,71.022177 C45.4149217,69.4320523 46.7910847,68.2738674 48.4410166,68.2738674 C50.0904975,68.2738674 51.5032091,69.4337973 51.7169827,71.022177 L51.7969501,71.4722222 L52.3607904,71.4722222 L55.296555,71.4722222 L56,71.4722222 L55.957983,70.9275103 C55.6762572,67.4217918 52.4331236,64.5555556 48.4410166,64.5555556 C45.6266939,64.5555556 43.3020822,66.0214576 42.0259781,68.0859806 C40.7447456,66.018706 38.3693057,64.5555556 35.5526582,64.5555556 C32.7302994,64.5555556 30.4111235,66.0571297 29.1389749,68.1311328 C27.861705,66.0538337 25.4909354,64.5555556 22.6656558,64.5555556 C19.8519152,64.5555556 17.509337,66.0218752 16.2329969,68.0859806 C14.9522364,66.0188626 12.5757833,64.556346 9.75967706,64.5555556 L9.75832176,64.5555556 Z M2.93504046,73.7777778 C2.11502515,73.7777778 1.47663493,74.0415161 0.876137217,74.5467422 C0.575846865,74.7993587 0.265334971,75.1239395 0.0757520228,75.7291448 C-0.113630856,76.3346949 0.0639742167,77.2654533 0.475944585,77.7640187 L3.23417427,81.1159569 C3.30895881,81.2068346 3.44473214,81.4989946 3.77450161,81.9495699 C4.10407128,82.4005452 4.89346625,83 5.71348218,83 L51.4230202,83 C52.2430355,83 53.0525947,82.4005452 53.3822124,81.9495699 C53.7117956,81.4988498 53.8245588,81.2067932 53.8996331,81.1159569 L56.6605576,77.7640187 C57.0718173,77.2653706 57.2299832,76.3344467 57.0405382,75.7291448 C56.8511553,75.1240223 56.5392203,74.7993587 56.2388059,74.5467422 C55.6383771,74.0414265 55.0212011,73.7777778 54.2014618,73.7777778 L2.93504046,73.7777778 Z" id="shape"></path>
                </g>
            </g>
        </g>
    </g>
</svg>